<svg width="190" height="128" xmlns="http://www.w3.org/2000/svg" xmlns:xlink="http://www.w3.org/1999/xlink" overflow="hidden"><defs><clipPath id="clip0"><path d="M604 113 794 113 794 241 604 241Z" fill-rule="evenodd" clip-rule="evenodd"/></clipPath><linearGradient x1="606.5" y1="177" x2="792.5" y2="177" gradientUnits="userSpaceOnUse" spreadMethod="reflect" id="fill1"><stop offset="0" stop-color="#00B0F0"/><stop offset="0.29" stop-color="#00B0F0"/><stop offset="0.51" stop-color="#FCB8E5"/><stop offset="1" stop-color="#FCB8E5"/></linearGradient></defs><g clip-path="url(#clip0)" transform="translate(-604 -113)"><path d="M662.275 127.75 655.552 114.75 632.645 114.75 606.5 167.25 632.645 220.5 655.303 220.25 662.275 233.75 669.496 220.25 686.926 220.25 699.376 239.5 711.825 220.5 729.753 220.25 736.974 233.75 744.195 220.25 766.355 220.25 792.5 167.5 766.355 114.5 744.444 114.5 736.725 127.75 730.002 114.75 669.247 114.75 662.275 127.75Z" stroke="#2F528F" stroke-miterlimit="8" fill="url(#fill1)" fill-rule="evenodd"/><path d="M633.5 158C633.5 141.708 646.26 128.5 662 128.5 677.74 128.5 690.5 141.708 690.5 158 690.5 174.292 677.74 187.5 662 187.5 646.26 187.5 633.5 174.292 633.5 158Z" stroke="#2F528F" stroke-miterlimit="8" fill="#FFFFFF" fill-rule="evenodd"/><path d="M708.5 158C708.5 141.708 721.484 128.5 737.5 128.5 753.516 128.5 766.5 141.708 766.5 158 766.5 174.292 753.516 187.5 737.5 187.5 721.484 187.5 708.5 174.292 708.5 158Z" stroke="#2F528F" stroke-miterlimit="8" fill="#FFFFFF" fill-rule="evenodd"/><path d="M633.5 192.833C633.5 190.44 635.44 188.5 637.833 188.5L686.167 188.5C688.56 188.5 690.5 190.44 690.5 192.833L690.5 210.167C690.5 212.56 688.56 214.5 686.167 214.5L637.833 214.5C635.44 214.5 633.5 212.56 633.5 210.167Z" stroke="#0070C0" stroke-miterlimit="8" fill="#00B0F0" fill-rule="evenodd"/><path d="M708.5 192.833C708.5 190.44 710.44 188.5 712.833 188.5L762.167 188.5C764.56 188.5 766.5 190.44 766.5 192.833L766.5 210.167C766.5 212.56 764.56 214.5 762.167 214.5L712.833 214.5C710.44 214.5 708.5 212.56 708.5 210.167Z" stroke="#0070C0" stroke-miterlimit="8" fill="#FCB8E5" fill-rule="evenodd"/></g></svg>